{"title":"Sinister.2012.DVDRip.x264.AAC-Acesn8s","uid":8048698,"size":1084491339,"categoryP":"video","categoryS":"movies","magnet":"?xt=urn:btih:8094de65eaa501fe32440dcc43e02e5589c9ae41&amp;dn=Sinister.2012.DVDRip.x264.AAC-Acesn8s&amp;tr=udp%3A%2F%2Ftracker.openbittorrent.com%3A80&amp;tr=udp%3A%2F%2Fopen.demonii.com%3A1337&amp;tr=udp%3A%2F%2Ftracker.coppersurfer.tk%3A6969&amp;tr=udp%3A%2F%2Fexodus.desync.com%3A6969","seeders":0,"leechers":0,"uploader":"Acesn8s","files":-1,"time":1358808899,"description":"Sinister.2012.DVDRip.x264.AAC-Acesn8s\n\nGeneral\nFormat                                   : MPEG-4\nFile size                                : 1 GB\nDuration                                 : 1h 45mn\nOverall bit rate mode                    : Variable\nOverall bit rate                         : 1 361 Kbps\n\nVideo\nID                                       : 1\nFormat                                   : AVC\nFormat/Info                              : Advanced Video Codec\nFormat profile                           : &lt;a class=&quot;__cf_email__&quot; href=&quot;/cdn-cgi/l/email-protection&quot; data-cfemail=&quot;f2bf939b9cb2bec0dcc3&quot;&gt;[email&amp;#160;protected]&lt;/a&gt;&lt;script cf-hash='f9e31' type=&quot;text/javascript&quot;&gt;\n/* &lt;![CDATA[ */!function(){try{var t=&quot;currentScript&quot;in document?document.currentScript:function(){for(var t=document.getElementsByTagName(&quot;script&quot;),e=t.length;e--;)if(t[e].getAttribute(&quot;cf-hash&quot;))return t[e]}();if(t&amp;&amp;t.previousSibling){var e,r,n,i,c=t.previousSibling,a=c.getAttribute(&quot;data-cfemail&quot;);if(a){for(e=&quot;&quot;,r=parseInt(a.substr(0,2),16),n=2;a.length-n;n+=2)i=parseInt(a.substr(n,2),16)^r,e+=String.fromCharCode(i);e=document.createTextNode(e),c.parentNode.replaceChild(e,c)}}}catch(u){}}();/* ]]&gt; */&lt;/script&gt;\nFormat settings, CABAC                   : Yes\nFormat settings, ReFrames                : 4 frames\nCodec ID                                 : avc1\nCodec ID/Info                            : Advanced Video Coding\nDuration                                 : 1h 45mn\nBit rate mode                            : Variable\nBit rate                                 : 1 167 Kbps\nWidth                                    : 640 pixels\nHeight                                   : 272 pixels\nDisplay aspect ratio                     : 2.35:1\nFrame rate mode                          : Constant\nFrame rate                               : 25.000 fps\nColor space                              : YUV\nChroma subsampling                       : 4:2:0\nBit depth                                : 8 bits\nScan type                                : Progressive\nBits/(Pixel*Frame)                       : 0.268\nStream size                              : 876 MiB (86%)\nWriting library                          : x264 core 112\n\nAudio\nID                                       : 2\nFormat                                   : AAC\nFormat/Info                              : Advanced Audio Codec\nFormat profile                           : LC\nCodec ID                                 : 40\nDuration                                 : 1h 45mn\nBit rate mode                            : Variable\nBit rate                                 : 192 Kbps\nMaximum bit rate                         : 310 Kbps\nChannel(s)                               : 2 channels\nChannel positions                        : Front: L R\nSampling rate                            : 48.0 KHz\nCompression mode                         : Lossy\nDelay relative to video                  : 80ms\nStream size                              : 144 MiB (14%)\n\nSource                                   : PAL DVDR \n\nIMDB: http://www.imdb.com/title/tt1922777/\n\nCast: Ethan Hawke, Juliet Rylance and James Ransone \n\nPlot: A true-crime writer finds a cache of 8mm &quot;snuff&quot; films that suggest the murder he is currently researching is the work of a serial killer whose career dates back to the 1960s. \n\n\nScreens: \n &lt;a href=&quot;\nhttp://www.shotpix.com/images/32225848973331445072.jpg&quot; rel=&quot;nofollow&quot; target=&quot;_NEW&quot;&gt;\nhttp://www.shotpix.com/images/32225848973331445072.jpg&lt;/a&gt;\n &lt;a href=&quot;\nhttp://www.shotpix.com/images/12333448474218269037.jpg&quot; rel=&quot;nofollow&quot; target=&quot;_NEW&quot;&gt;\nhttp://www.shotpix.com/images/12333448474218269037.jpg&lt;/a&gt;\n &lt;a href=&quot;\nhttp://www.shotpix.com/images/97416797936818694051.jpg&quot; rel=&quot;nofollow&quot; target=&quot;_NEW&quot;&gt;\nhttp://www.shotpix.com/images/97416797936818694051.jpg&lt;/a&gt;\n &lt;a href=&quot;\nhttp://www.shotpix.com/images/10272937923787676508.jpg&quot; rel=&quot;nofollow&quot; target=&quot;_NEW&quot;&gt;\nhttp://www.shotpix.com/images/10272937923787676508.jpg&lt;/a&gt;\n &lt;a href=&quot;\nhttp://www.shotpix.com/images/51228263198304467912.jpg&quot; rel=&quot;nofollow&quot; target=&quot;_NEW&quot;&gt;\nhttp://www.shotpix.com/images/51228263198304467912.jpg&lt;/a&gt;\n &lt;a href=&quot;\nhttp://www.shotpix.com/images/96717701918973440827.jpg&quot; rel=&quot;nofollow&quot; target=&quot;_NEW&quot;&gt;\nhttp://www.shotpix.com/images/96717701918973440827.jpg&lt;/a&gt;","torrent":{"xt":"urn:btih:8094de65eaa501fe32440dcc43e02e5589c9ae41","amp;dn":"Sinister.2012.DVDRip.x264.AAC-Acesn8s","amp;tr":["udp%3A%2F%2Ftracker.openbittorrent.com%3A80","udp%3A%2F%2Fopen.demonii.com%3A1337","udp%3A%2F%2Ftracker.coppersurfer.tk%3A6969","udp%3A%2F%2Fexodus.desync.com%3A6969"],"infoHash":"8094de65eaa501fe32440dcc43e02e5589c9ae41","infoHashBuffer":{"type":"Buffer","data":[128,148,222,101,234,165,1,254,50,68,13,204,67,224,46,85,137,201,174,65]},"announce":[],"urlList":[]}}